<svg width="16" height="16" viewBox="0 0 16 16" fill="none" xmlns="http://www.w3.org/2000/svg">
<path d="M8.00179 3.76785C5.73162 3.76785 3.9005 5.53831 3.9005 7.73328C3.9005 9.92824 5.73162 11.6987 8.00179 11.6987C10.2719 11.6987 12.1031 9.92824 12.1031 7.73328C12.1031 5.53831 10.2719 3.76785 8.00179 3.76785ZM8.00179 10.3113C6.53475 10.3113 5.33542 9.15517 5.33542 7.73328C5.33542 6.31138 6.53118 5.15523 8.00179 5.15523C9.47239 5.15523 10.6682 6.31138 10.6682 7.73328C10.6682 9.15517 9.46882 10.3113 8.00179 10.3113ZM13.2274 3.60564C13.2274 4.11987 12.7991 4.53056 12.2708 4.53056C11.739 4.53056 11.3142 4.11642 11.3142 3.60564C11.3142 3.09486 11.7426 2.68072 12.2708 2.68072C12.7991 2.68072 13.2274 3.09486 13.2274 3.60564ZM15.9438 4.54437C15.8831 3.30539 15.5904 2.20791 14.6516 1.30369C13.7165 0.399476 12.5814 0.116478 11.2999 0.0543565C9.97925 -0.0181187 6.02075 -0.0181187 4.70006 0.0543565C3.4222 0.113027 2.28712 0.396025 1.34835 1.30024C0.409593 2.20445 0.120468 3.30194 0.0562186 4.54092C-0.0187395 5.81786 -0.0187395 9.64524 0.0562186 10.9222C0.116899 12.1612 0.409593 13.2586 1.34835 14.1629C2.28712 15.0671 3.41863 15.3501 4.70006 15.4122C6.02075 15.4847 9.97925 15.4847 11.2999 15.4122C12.5814 15.3535 13.7165 15.0705 14.6516 14.1629C15.5868 13.2586 15.8795 12.1612 15.9438 10.9222C16.0187 9.64524 16.0187 5.82131 15.9438 4.54437ZM14.2376 12.2923C13.9592 12.9687 13.4202 13.4899 12.717 13.7625C11.664 14.1663 9.16542 14.0731 8.00179 14.0731C6.83815 14.0731 4.33597 14.1629 3.28656 13.7625C2.58695 13.4933 2.04796 12.9722 1.76598 12.2923C1.34835 11.2742 1.44473 8.85837 1.44473 7.73328C1.44473 6.60819 1.35192 4.18889 1.76598 3.17424C2.04439 2.49781 2.58338 1.97667 3.28656 1.70403C4.33954 1.30024 6.83815 1.39342 8.00179 1.39342C9.16542 1.39342 11.6676 1.30369 12.717 1.70403C13.4166 1.97322 13.9556 2.49436 14.2376 3.17424C14.6552 4.19235 14.5588 6.60819 14.5588 7.73328C14.5588 8.85837 14.6552 11.2777 14.2376 12.2923Z" fill="white"/>
</svg>
