<svg width="19" height="15" viewBox="0 0 19 15" fill="none" xmlns="http://www.w3.org/2000/svg">
<path fill-rule="evenodd" clip-rule="evenodd" d="M8.90958 4.50383L8.86995 3.87391C8.75115 2.24137 9.79388 0.750202 11.4438 0.171788C12.051 -0.0339113 13.0805 -0.0596237 13.7537 0.120363C14.0177 0.1975 14.5193 0.454547 14.8756 0.685959L15.5224 1.11017L16.2352 0.891658C16.6312 0.775914 17.1592 0.583109 17.3967 0.454548C17.6211 0.33888 17.8191 0.274561 17.8191 0.313168C17.8191 0.531685 17.3307 1.27727 16.9216 1.68859C16.3672 2.26708 16.5256 2.3185 17.6475 1.93282C18.3207 1.7143 18.3338 1.7143 18.2019 1.95853C18.1226 2.08709 17.7135 2.53702 17.2779 2.94834C16.5387 3.6554 16.4992 3.73253 16.4992 4.32384C16.4992 5.23652 16.0504 7.139 15.6016 8.18024C14.77 10.1341 12.9881 12.1523 11.2062 13.1678C8.69839 14.5948 5.35891 14.9546 2.54748 14.1191C1.61034 13.8363 0 13.1164 0 12.9879C0 12.9493 0.488346 12.8979 1.08236 12.8851C2.32308 12.8594 3.5638 12.5251 4.61975 11.9338L5.33257 11.5225L4.51415 11.2525C3.35261 10.8668 2.30987 9.97987 2.04593 9.14434C1.96667 8.8744 1.99309 8.8615 2.73225 8.8615L3.49783 8.84868L2.85105 8.55303C2.08547 8.18024 1.38594 7.55032 1.04274 6.90759C0.79192 6.44484 0.475215 5.27505 0.5676 5.18509C0.59394 5.14656 0.871175 5.22362 1.18796 5.32647C2.09868 5.64784 2.21749 5.5707 1.68951 5.03082C0.699535 4.0539 0.39596 2.60126 0.871175 1.22584L1.09557 0.608821L1.96667 1.44436C3.74865 3.12833 5.84733 4.13104 8.24959 4.42669L8.90958 4.50383Z" fill="white"/>
</svg>
